<mxfile host="app.diagrams.net" agent="Mozilla/5.0 (Macintosh; Intel Mac OS X 10_15_7) AppleWebKit/605.1.15 (KHTML, like Gecko) Version/17.6 Safari/605.1.15" version="26.0.16">
  <diagram name="Account" id="tgDz5AeaXwY79lofnqwd">
    <mxGraphModel dx="1272" dy="863" grid="1" gridSize="10" guides="1" tooltips="1" connect="1" arrows="1" fold="1" page="1" pageScale="1" pageWidth="827" pageHeight="1169" math="0" shadow="0">
      <root>
        <mxCell id="0" />
        <mxCell id="1" parent="0" />
        <mxCell id="eWz67TTPyYCK9VNah5Zr-2" value="" style="html=1;overflow=block;blockSpacing=1;whiteSpace=wrap;container=1;pointerEvents=0;collapsible=0;recursiveResize=0;fontSize=12;fontFamily=Helvetica;spacing=0;strokeColor=#unset;fillOpacity=0;rounded=1;absoluteArcSize=1;arcSize=9;fillColor=#000000;strokeWidth=NaN;lucidId=kTDUX1_EgLmr;" parent="1" vertex="1">
          <mxGeometry x="148" y="130" width="420" height="420" as="geometry" />
        </mxCell>
        <mxCell id="eWz67TTPyYCK9VNah5Zr-76" value="" style="html=1;overflow=block;blockSpacing=1;whiteSpace=wrap;container=1;pointerEvents=0;collapsible=0;recursiveResize=0;fontSize=12;fontFamily=Helvetica;spacing=0;strokeColor=#3a414a;strokeOpacity=100;fillOpacity=0;rounded=1;absoluteArcSize=1;arcSize=9;fillColor=#000000;strokeWidth=1.5;lucidId=R5DUT0HCY4g-;" parent="eWz67TTPyYCK9VNah5Zr-2" vertex="1">
          <mxGeometry y="40" width="420" height="380" as="geometry" />
        </mxCell>
        <mxCell id="eWz67TTPyYCK9VNah5Zr-77" value="&lt;font&gt;Log In Page&lt;/font&gt;" style="text;html=1;align=center;verticalAlign=middle;resizable=0;points=[];autosize=1;strokeColor=none;fillColor=none;fontFamily=Helvetica;fontSize=16;" parent="eWz67TTPyYCK9VNah5Zr-76" vertex="1">
          <mxGeometry x="154.5" width="110" height="30" as="geometry" />
        </mxCell>
        <mxCell id="eWz67TTPyYCK9VNah5Zr-6" value="Sign Up" style="html=1;overflow=block;blockSpacing=1;whiteSpace=wrap;ellipse;fontSize=12;spacing=3.8;strokeColor=#3a414a;strokeOpacity=100;fillOpacity=100;rounded=1;absoluteArcSize=1;arcSize=9;fillColor=#ffffff;strokeWidth=1.5;lucidId=sUDUintjghet;fontFamily=Helvetica;" parent="eWz67TTPyYCK9VNah5Zr-76" vertex="1">
          <mxGeometry x="142" y="156" width="135" height="68" as="geometry" />
        </mxCell>
        <mxCell id="eWz67TTPyYCK9VNah5Zr-7" value="Forgot Password" style="html=1;overflow=block;blockSpacing=1;whiteSpace=wrap;ellipse;fontSize=12;spacing=3.8;strokeColor=#3a414a;strokeOpacity=100;fillOpacity=100;rounded=1;absoluteArcSize=1;arcSize=9;fillColor=#ffffff;strokeWidth=1.5;lucidId=6VDUhwTjax~7;fontFamily=Helvetica;" parent="eWz67TTPyYCK9VNah5Zr-76" vertex="1">
          <mxGeometry x="142.5" y="60" width="135" height="68" as="geometry" />
        </mxCell>
        <mxCell id="eWz67TTPyYCK9VNah5Zr-3" value="" style="html=1;overflow=block;blockSpacing=1;whiteSpace=wrap;container=1;pointerEvents=0;collapsible=0;recursiveResize=0;fontSize=12;fontFamily=Helvetica;spacing=0;strokeColor=#3a414a;strokeOpacity=100;fillOpacity=0;rounded=1;absoluteArcSize=1;arcSize=9;fillColor=#000000;strokeWidth=1.5;lucidId=R5DUT0HCY4g-;" parent="1" vertex="1">
          <mxGeometry x="660" y="408" width="360" height="420" as="geometry" />
        </mxCell>
        <mxCell id="eWz67TTPyYCK9VNah5Zr-73" value="&lt;font style=&quot;font-size: 16px;&quot;&gt;Register Page&lt;/font&gt;" style="text;html=1;align=center;verticalAlign=middle;resizable=0;points=[];autosize=1;strokeColor=none;fillColor=none;fontFamily=Helvetica;fontSize=12;" parent="eWz67TTPyYCK9VNah5Zr-3" vertex="1">
          <mxGeometry x="120" width="120" height="30" as="geometry" />
        </mxCell>
        <mxCell id="eWz67TTPyYCK9VNah5Zr-39" value="Get License Key" style="html=1;overflow=block;blockSpacing=1;whiteSpace=wrap;ellipse;fontSize=12;spacing=3.8;strokeColor=#3a414a;strokeOpacity=100;fillOpacity=100;rounded=1;absoluteArcSize=1;arcSize=9;fillColor=#ffffff;strokeWidth=1.5;lucidId=3iEUOj4Z6llQ;fontFamily=Helvetica;" parent="eWz67TTPyYCK9VNah5Zr-3" vertex="1">
          <mxGeometry x="52.5" y="37" width="90" height="60" as="geometry" />
        </mxCell>
        <mxCell id="eWz67TTPyYCK9VNah5Zr-18" value="Password Check" style="html=1;overflow=block;blockSpacing=1;whiteSpace=wrap;ellipse;fontSize=12;spacing=3.8;strokeColor=#3a414a;strokeOpacity=100;fillOpacity=100;rounded=1;absoluteArcSize=1;arcSize=9;fillColor=#ffffff;strokeWidth=1.5;lucidId=W7DUtTJI5MFG;fontFamily=Helvetica;" parent="eWz67TTPyYCK9VNah5Zr-3" vertex="1">
          <mxGeometry x="150" y="317" width="90" height="60" as="geometry" />
        </mxCell>
        <mxCell id="eWz67TTPyYCK9VNah5Zr-17" value="Email Check" style="html=1;overflow=block;blockSpacing=1;whiteSpace=wrap;ellipse;fontSize=12;spacing=3.8;strokeColor=#3a414a;strokeOpacity=100;fillOpacity=100;rounded=1;absoluteArcSize=1;arcSize=9;fillColor=#ffffff;strokeWidth=1.5;lucidId=O7DUrSSDifmn;fontFamily=Helvetica;" parent="eWz67TTPyYCK9VNah5Zr-3" vertex="1">
          <mxGeometry x="240" y="227" width="90" height="60" as="geometry" />
        </mxCell>
        <mxCell id="eWz67TTPyYCK9VNah5Zr-16" value="Username Check" style="html=1;overflow=block;blockSpacing=1;whiteSpace=wrap;ellipse;fontSize=12;spacing=3.8;strokeColor=#3a414a;strokeOpacity=100;fillOpacity=100;rounded=1;absoluteArcSize=1;arcSize=9;fillColor=#ffffff;strokeWidth=1.5;lucidId=s7DUezGjw3QZ;fontFamily=Helvetica;" parent="eWz67TTPyYCK9VNah5Zr-3" vertex="1">
          <mxGeometry x="200" y="132" width="90" height="60" as="geometry" />
        </mxCell>
        <mxCell id="eWz67TTPyYCK9VNah5Zr-94" style="edgeStyle=orthogonalEdgeStyle;rounded=0;orthogonalLoop=1;jettySize=auto;html=1;exitX=0.5;exitY=1;exitDx=0;exitDy=0;" parent="1" source="eWz67TTPyYCK9VNah5Zr-8" target="eWz67TTPyYCK9VNah5Zr-93" edge="1">
          <mxGeometry relative="1" as="geometry" />
        </mxCell>
        <mxCell id="eWz67TTPyYCK9VNah5Zr-8" value="Log In" style="html=1;overflow=block;blockSpacing=1;whiteSpace=wrap;ellipse;fontSize=12;spacing=3.8;strokeColor=#3a414a;strokeOpacity=100;fillOpacity=100;rounded=1;absoluteArcSize=1;arcSize=9;fillColor=#ffffff;strokeWidth=1.5;lucidId=wWDUFufL0aMl;fontFamily=Helvetica;" parent="1" vertex="1">
          <mxGeometry x="290" y="408" width="135" height="68" as="geometry" />
        </mxCell>
        <mxCell id="eWz67TTPyYCK9VNah5Zr-10" value="Username Empty Check" style="html=1;overflow=block;blockSpacing=1;whiteSpace=wrap;ellipse;fontSize=12;spacing=3.8;strokeColor=#3a414a;strokeOpacity=100;fillOpacity=100;rounded=1;absoluteArcSize=1;arcSize=9;fillColor=#ffffff;strokeWidth=1.5;lucidId=s1DUV5B9-y7L;fontFamily=Helvetica;" parent="1" vertex="1">
          <mxGeometry x="200" y="475" width="90" height="60" as="geometry" />
        </mxCell>
        <mxCell id="eWz67TTPyYCK9VNah5Zr-11" value="Password Format Check" style="html=1;overflow=block;blockSpacing=1;whiteSpace=wrap;ellipse;fontSize=12;spacing=3.8;strokeColor=#3a414a;strokeOpacity=100;fillOpacity=100;rounded=1;absoluteArcSize=1;arcSize=9;fillColor=#ffffff;strokeWidth=1.5;lucidId=a2DUm376~W8t;fontFamily=Helvetica;" parent="1" vertex="1">
          <mxGeometry x="425" y="475" width="90" height="60" as="geometry" />
        </mxCell>
        <mxCell id="eWz67TTPyYCK9VNah5Zr-12" value="" style="html=1;jettySize=18;whiteSpace=wrap;fontSize=12;strokeColor=#3a414a;strokeOpacity=100;dashed=1;fixDash=1;strokeWidth=0.8;rounded=0;startArrow=none;endArrow=block;endFill=1;exitX=0.163;exitY=0.881;exitPerimeter=0;entryX=0.889;entryY=0.17;entryPerimeter=0;lucidId=G2DUMYeTof7~;fontFamily=Helvetica;" parent="1" source="eWz67TTPyYCK9VNah5Zr-8" target="eWz67TTPyYCK9VNah5Zr-10" edge="1">
          <mxGeometry width="100" height="100" relative="1" as="geometry">
            <Array as="points" />
          </mxGeometry>
        </mxCell>
        <mxCell id="eWz67TTPyYCK9VNah5Zr-13" value="" style="html=1;jettySize=18;whiteSpace=wrap;fontSize=12;strokeColor=#3a414a;strokeOpacity=100;dashed=1;fixDash=1;strokeWidth=0.8;rounded=0;startArrow=none;endArrow=block;endFill=1;exitX=0.837;exitY=0.882;exitPerimeter=0;entryX=0.111;entryY=0.17;entryPerimeter=0;lucidId=J2DUJ5fLoulq;fontFamily=Helvetica;" parent="1" source="eWz67TTPyYCK9VNah5Zr-8" target="eWz67TTPyYCK9VNah5Zr-11" edge="1">
          <mxGeometry width="100" height="100" relative="1" as="geometry">
            <Array as="points" />
          </mxGeometry>
        </mxCell>
        <mxCell id="Ovm6Z-cW9augZ0ihivDo-10" style="edgeStyle=orthogonalEdgeStyle;rounded=0;orthogonalLoop=1;jettySize=auto;html=1;dashed=1;" parent="1" source="eWz67TTPyYCK9VNah5Zr-14" target="eWz67TTPyYCK9VNah5Zr-39" edge="1">
          <mxGeometry relative="1" as="geometry" />
        </mxCell>
        <mxCell id="eWz67TTPyYCK9VNah5Zr-14" value="Create Account" style="html=1;overflow=block;blockSpacing=1;whiteSpace=wrap;ellipse;fontSize=12;spacing=3.8;strokeColor=#3a414a;strokeOpacity=100;fillOpacity=100;rounded=1;absoluteArcSize=1;arcSize=9;fillColor=#ffffff;strokeWidth=1.5;lucidId=l6DUR4Ug6KeE;fontFamily=Helvetica;" parent="1" vertex="1">
          <mxGeometry x="690" y="577" width="135" height="68" as="geometry" />
        </mxCell>
        <mxCell id="eWz67TTPyYCK9VNah5Zr-19" value="" style="html=1;jettySize=18;whiteSpace=wrap;fontSize=12;strokeColor=#3a414a;strokeOpacity=100;dashed=1;fixDash=1;strokeWidth=0.8;rounded=0;startArrow=none;endArrow=block;endFill=1;exitX=0.755;exitY=0.058;exitPerimeter=0;lucidId=t8DULGcAUfj5;fontFamily=Helvetica;" parent="1" source="eWz67TTPyYCK9VNah5Zr-14" edge="1">
          <mxGeometry width="100" height="100" relative="1" as="geometry">
            <Array as="points" />
            <mxPoint x="860" y="570" as="targetPoint" />
          </mxGeometry>
        </mxCell>
        <mxCell id="eWz67TTPyYCK9VNah5Zr-20" value="" style="html=1;jettySize=18;whiteSpace=wrap;fontSize=12;strokeColor=#3a414a;strokeOpacity=100;dashed=1;fixDash=1;strokeWidth=0.8;rounded=0;startArrow=none;endArrow=block;endFill=1;exitX=1.006;exitY=0.5;exitPerimeter=0;entryX=-0.008;entryY=0.5;entryPerimeter=0;lucidId=B8DUC7GV7Yk3;fontFamily=Helvetica;" parent="1" source="eWz67TTPyYCK9VNah5Zr-14" target="eWz67TTPyYCK9VNah5Zr-17" edge="1">
          <mxGeometry width="100" height="100" relative="1" as="geometry">
            <Array as="points" />
          </mxGeometry>
        </mxCell>
        <mxCell id="eWz67TTPyYCK9VNah5Zr-21" value="" style="html=1;jettySize=18;whiteSpace=wrap;fontSize=12;strokeColor=#3a414a;strokeOpacity=100;dashed=1;fixDash=1;strokeWidth=0.8;rounded=0;startArrow=none;endArrow=block;endFill=1;exitX=0.721;exitY=0.96;exitPerimeter=0;entryX=0.105;entryY=0.178;entryPerimeter=0;lucidId=E8DUzFWszFlh;fontFamily=Helvetica;" parent="1" source="eWz67TTPyYCK9VNah5Zr-14" target="eWz67TTPyYCK9VNah5Zr-18" edge="1">
          <mxGeometry width="100" height="100" relative="1" as="geometry">
            <Array as="points" />
          </mxGeometry>
        </mxCell>
        <mxCell id="eWz67TTPyYCK9VNah5Zr-22" value="API GET : isUsernameUnique" style="html=1;overflow=block;blockSpacing=1;whiteSpace=wrap;shape=process;fontSize=12;fontFamily=Helvetica;spacing=3.8;strokeColor=#3a414a;strokeOpacity=100;fillOpacity=100;rounded=1;absoluteArcSize=1;arcSize=9;fillColor=#ffffff;strokeWidth=0.8;lucidId=d-DUjQnT9r4C;" parent="1" vertex="1">
          <mxGeometry x="1050" y="550" width="180" height="40" as="geometry" />
        </mxCell>
        <mxCell id="eWz67TTPyYCK9VNah5Zr-23" value="" style="html=1;jettySize=18;whiteSpace=wrap;fontSize=12;strokeColor=#3a414a;strokeOpacity=100;strokeWidth=0.8;rounded=0;startArrow=none;endArrow=block;endFill=1;exitX=1.008;exitY=0.5;exitPerimeter=0;entryX=-0.002;entryY=0.5;entryPerimeter=0;lucidId=8_DU1eQ9pBNe;fontFamily=Helvetica;" parent="1" source="eWz67TTPyYCK9VNah5Zr-16" target="eWz67TTPyYCK9VNah5Zr-22" edge="1">
          <mxGeometry width="100" height="100" relative="1" as="geometry">
            <Array as="points" />
          </mxGeometry>
        </mxCell>
        <mxCell id="eWz67TTPyYCK9VNah5Zr-24" value="&lt;font&gt;Is input username&amp;nbsp;&lt;/font&gt;&lt;div&gt;&lt;font&gt;unique?&lt;/font&gt;&lt;/div&gt;" style="html=1;overflow=block;blockSpacing=1;whiteSpace=wrap;rhombus;fontSize=12;fontFamily=Helvetica;fontColor=default;spacing=3.8;strokeColor=#3a414a;strokeOpacity=100;fillOpacity=100;rounded=1;absoluteArcSize=1;arcSize=9;fillColor=#ffffff;strokeWidth=0.8;lucidId=H.DUoWM3rg2R;" parent="1" vertex="1">
          <mxGeometry x="1260" y="525" width="150" height="90" as="geometry" />
        </mxCell>
        <mxCell id="eWz67TTPyYCK9VNah5Zr-25" value="" style="html=1;jettySize=18;whiteSpace=wrap;fontSize=12;strokeColor=#3a414a;strokeOpacity=100;strokeWidth=0.8;rounded=0;startArrow=none;endArrow=block;endFill=1;exitX=1.002;exitY=0.5;exitPerimeter=0;entryX=0.014;entryY=0.5;entryPerimeter=0;lucidId=d~DUTkmeUFl3;fontFamily=Helvetica;" parent="1" source="eWz67TTPyYCK9VNah5Zr-22" target="eWz67TTPyYCK9VNah5Zr-24" edge="1">
          <mxGeometry width="100" height="100" relative="1" as="geometry">
            <Array as="points" />
          </mxGeometry>
        </mxCell>
        <mxCell id="eWz67TTPyYCK9VNah5Zr-26" value="" style="html=1;jettySize=18;whiteSpace=wrap;fontSize=12;fontFamily=Helvetica;fontColor=#333333;fontStyle=1;strokeColor=#82b366;strokeOpacity=100;strokeWidth=0.8;rounded=0;startArrow=none;endArrow=block;endFill=1;exitX=0.337;exitY=0.158;exitPerimeter=0;entryX=0.5;entryY=-0.013;entryPerimeter=0;lucidId=n~DU6i61wU7h;fillColor=#d5e8d4;" parent="1" source="eWz67TTPyYCK9VNah5Zr-24" target="eWz67TTPyYCK9VNah5Zr-16" edge="1">
          <mxGeometry width="100" height="100" relative="1" as="geometry">
            <Array as="points" />
          </mxGeometry>
        </mxCell>
        <mxCell id="eWz67TTPyYCK9VNah5Zr-27" value="Yes" style="text;html=1;resizable=0;labelBackgroundColor=default;align=center;verticalAlign=middle;fontStyle=1;fontColor=light-dark(#77bb41, #c1c1c1);fontSize=12;fontFamily=Helvetica;" parent="eWz67TTPyYCK9VNah5Zr-26" vertex="1">
          <mxGeometry relative="1" as="geometry" />
        </mxCell>
        <mxCell id="eWz67TTPyYCK9VNah5Zr-28" value="" style="html=1;jettySize=18;whiteSpace=wrap;fontSize=12;fontFamily=Helvetica;fontColor=#333333;fontStyle=1;strokeColor=#b85450;strokeOpacity=100;strokeWidth=0.8;rounded=1;arcSize=12;edgeStyle=orthogonalEdgeStyle;startArrow=none;endArrow=block;endFill=1;exitX=0.48;exitY=0.017;exitPerimeter=0;lucidId=s~DUw0Df2HVt;fillColor=#f8cecc;entryX=0.5;entryY=0;entryDx=0;entryDy=0;" parent="1" source="eWz67TTPyYCK9VNah5Zr-24" target="eWz67TTPyYCK9VNah5Zr-16" edge="1">
          <mxGeometry width="100" height="100" relative="1" as="geometry">
            <Array as="points">
              <mxPoint x="1332" y="515" />
              <mxPoint x="905" y="515" />
            </Array>
            <mxPoint x="1090" y="455" as="targetPoint" />
          </mxGeometry>
        </mxCell>
        <mxCell id="eWz67TTPyYCK9VNah5Zr-29" value="No" style="text;html=1;resizable=0;labelBackgroundColor=default;align=center;verticalAlign=middle;fontStyle=1;fontColor=light-dark(#ff4013, #c1c1c1);fontSize=12;fontFamily=Helvetica;" parent="eWz67TTPyYCK9VNah5Zr-28" vertex="1">
          <mxGeometry relative="1" as="geometry" />
        </mxCell>
        <mxCell id="eWz67TTPyYCK9VNah5Zr-30" value="API GET :&amp;nbsp;&lt;div&gt;isEmailUnique&lt;/div&gt;" style="html=1;overflow=block;blockSpacing=1;whiteSpace=wrap;shape=process;fontSize=12;fontFamily=Helvetica;spacing=3.8;strokeColor=#3a414a;strokeOpacity=100;fillOpacity=100;rounded=1;absoluteArcSize=1;arcSize=9;fillColor=#ffffff;strokeWidth=0.8;lucidId=fcEU7vY~6awU;" parent="1" vertex="1">
          <mxGeometry x="1050" y="645" width="180" height="40" as="geometry" />
        </mxCell>
        <mxCell id="eWz67TTPyYCK9VNah5Zr-31" value="&lt;div style=&quot;display: flex; justify-content: center; text-align: center; align-items: baseline; line-height: 1.25; margin-top: -2px;&quot;&gt;&lt;span style=&quot;color: rgb(0, 0, 0);&quot;&gt;&lt;font&gt;Is input&amp;nbsp;&lt;/font&gt;&lt;span&gt;email u&lt;/span&gt;&lt;/span&gt;&lt;span&gt;&lt;span&gt;nique?&lt;/span&gt;&lt;/span&gt;&lt;/div&gt;" style="html=1;overflow=block;blockSpacing=1;whiteSpace=wrap;rhombus;fontSize=12;fontFamily=Helvetica;spacing=3.8;strokeColor=#3a414a;strokeOpacity=100;fillOpacity=100;rounded=1;absoluteArcSize=1;arcSize=9;fillColor=#ffffff;strokeWidth=0.8;lucidId=fcEUWMaaT8yM;" parent="1" vertex="1">
          <mxGeometry x="1260" y="620" width="150" height="90" as="geometry" />
        </mxCell>
        <mxCell id="eWz67TTPyYCK9VNah5Zr-32" value="" style="html=1;jettySize=18;whiteSpace=wrap;fontSize=12;fontFamily=Helvetica;fontColor=#333333;fontStyle=1;strokeColor=#82b366;strokeOpacity=100;strokeWidth=0.8;rounded=0;startArrow=none;endArrow=block;endFill=1;exitX=0.329;exitY=0.834;exitPerimeter=0;entryX=0.5;entryY=1.013;entryPerimeter=0;lucidId=fcEUrLzZhkil;labelBackgroundColor=none;fillColor=#d5e8d4;" parent="1" source="eWz67TTPyYCK9VNah5Zr-31" target="eWz67TTPyYCK9VNah5Zr-17" edge="1">
          <mxGeometry width="100" height="100" relative="1" as="geometry">
            <Array as="points" />
          </mxGeometry>
        </mxCell>
        <mxCell id="eWz67TTPyYCK9VNah5Zr-33" value="Yes" style="text;html=1;resizable=0;labelBackgroundColor=default;align=center;verticalAlign=middle;fontStyle=1;fontColor=light-dark(#77bb41, #c1c1c1);fontSize=12;fontFamily=Helvetica;" parent="eWz67TTPyYCK9VNah5Zr-32" vertex="1">
          <mxGeometry relative="1" as="geometry" />
        </mxCell>
        <mxCell id="eWz67TTPyYCK9VNah5Zr-34" value="" style="html=1;jettySize=18;whiteSpace=wrap;fontSize=12;fontFamily=Helvetica;fontColor=#333333;fontStyle=1;strokeColor=#b85450;strokeOpacity=100;strokeWidth=0.8;rounded=1;arcSize=12;edgeStyle=orthogonalEdgeStyle;startArrow=none;endArrow=block;endFill=1;exitX=0.5;exitY=0.99;exitPerimeter=0;entryX=0.5;entryY=1.013;entryPerimeter=0;lucidId=fcEUvP.BdZtf;fillColor=#f8cecc;" parent="1" source="eWz67TTPyYCK9VNah5Zr-31" target="eWz67TTPyYCK9VNah5Zr-17" edge="1">
          <mxGeometry width="100" height="100" relative="1" as="geometry">
            <Array as="points">
              <mxPoint x="1335" y="715" />
              <mxPoint x="945" y="715" />
            </Array>
          </mxGeometry>
        </mxCell>
        <mxCell id="eWz67TTPyYCK9VNah5Zr-35" value="No" style="text;html=1;resizable=0;labelBackgroundColor=default;align=center;verticalAlign=middle;fontStyle=1;fontColor=light-dark(#ff4013, #c1c1c1);fontSize=12;fontFamily=Helvetica;" parent="eWz67TTPyYCK9VNah5Zr-34" vertex="1">
          <mxGeometry relative="1" as="geometry" />
        </mxCell>
        <mxCell id="eWz67TTPyYCK9VNah5Zr-37" value="" style="html=1;jettySize=18;whiteSpace=wrap;fontSize=12;strokeColor=#3a414a;strokeOpacity=100;strokeWidth=0.8;rounded=0;startArrow=none;endArrow=block;endFill=1;exitX=1.002;exitY=0.5;exitPerimeter=0;entryX=0.014;entryY=0.5;entryPerimeter=0;lucidId=WeEUJOYxWwny;fontFamily=Helvetica;" parent="1" source="eWz67TTPyYCK9VNah5Zr-30" target="eWz67TTPyYCK9VNah5Zr-31" edge="1">
          <mxGeometry width="100" height="100" relative="1" as="geometry">
            <Array as="points" />
          </mxGeometry>
        </mxCell>
        <mxCell id="eWz67TTPyYCK9VNah5Zr-41" value="" style="html=1;jettySize=18;whiteSpace=wrap;fontSize=12;strokeColor=#3a414a;strokeOpacity=100;strokeWidth=0.8;rounded=1;arcSize=12;edgeStyle=orthogonalEdgeStyle;startArrow=none;endArrow=block;endFill=1;exitX=0.5;exitY=1.011;exitPerimeter=0;entryX=0.5;entryY=0;lucidId=wqEUbB9Iiw~2;fontFamily=Helvetica;entryDx=0;entryDy=0;" parent="1" source="eWz67TTPyYCK9VNah5Zr-14" target="eWz67TTPyYCK9VNah5Zr-47" edge="1">
          <mxGeometry width="100" height="100" relative="1" as="geometry">
            <Array as="points" />
          </mxGeometry>
        </mxCell>
        <mxCell id="eWz67TTPyYCK9VNah5Zr-47" value="API POST : registerAccount" style="html=1;overflow=block;blockSpacing=1;whiteSpace=wrap;shape=process;fontSize=12;fontFamily=Helvetica;spacing=3.8;strokeColor=#3a414a;strokeOpacity=100;fillOpacity=100;rounded=1;absoluteArcSize=1;arcSize=9;fillColor=#ffffff;strokeWidth=0.8;lucidId=uxEU2n4akM2R;" parent="1" vertex="1">
          <mxGeometry x="667.5" y="892" width="180" height="40" as="geometry" />
        </mxCell>
        <mxCell id="Ovm6Z-cW9augZ0ihivDo-18" style="edgeStyle=orthogonalEdgeStyle;rounded=0;orthogonalLoop=1;jettySize=auto;html=1;" parent="1" source="eWz67TTPyYCK9VNah5Zr-48" target="eWz67TTPyYCK9VNah5Zr-83" edge="1">
          <mxGeometry relative="1" as="geometry" />
        </mxCell>
        <mxCell id="Ovm6Z-cW9augZ0ihivDo-19" style="edgeStyle=orthogonalEdgeStyle;rounded=0;orthogonalLoop=1;jettySize=auto;html=1;exitX=1;exitY=0.5;exitDx=0;exitDy=0;entryX=0;entryY=0.5;entryDx=0;entryDy=0;" parent="1" source="eWz67TTPyYCK9VNah5Zr-48" target="eWz67TTPyYCK9VNah5Zr-49" edge="1">
          <mxGeometry relative="1" as="geometry" />
        </mxCell>
        <mxCell id="eWz67TTPyYCK9VNah5Zr-48" value="Generate license key" style="html=1;overflow=block;blockSpacing=1;whiteSpace=wrap;fontSize=12;fontFamily=Helvetica;spacing=9;rounded=1;absoluteArcSize=1;arcSize=9;strokeWidth=NaN;lucidId=pTEUjj1fshSb;" parent="1" vertex="1">
          <mxGeometry x="1270" y="460" width="150" height="30" as="geometry" />
        </mxCell>
        <mxCell id="eWz67TTPyYCK9VNah5Zr-49" value="Send license key email" style="html=1;overflow=block;blockSpacing=1;whiteSpace=wrap;fontSize=12;fontFamily=Helvetica;spacing=9;rounded=1;absoluteArcSize=1;arcSize=9;strokeWidth=NaN;lucidId=jUEUQ4qV01XV;" parent="1" vertex="1">
          <mxGeometry x="1460" y="460" width="150" height="30" as="geometry" />
        </mxCell>
        <mxCell id="eWz67TTPyYCK9VNah5Zr-54" value="" style="html=1;jettySize=18;whiteSpace=wrap;fontSize=12;strokeColor=#3a414a;strokeOpacity=100;strokeWidth=0.8;rounded=0;startArrow=none;endArrow=block;endFill=1;exitX=1.002;exitY=0.5;exitPerimeter=0;entryX=0;entryY=0.5;lucidId=-VEUsnVqnqdy;fontFamily=Helvetica;fontColor=default;labelBackgroundColor=default;entryDx=0;entryDy=0;" parent="1" source="eWz67TTPyYCK9VNah5Zr-47" target="Ovm6Z-cW9augZ0ihivDo-3" edge="1">
          <mxGeometry width="100" height="100" relative="1" as="geometry">
            <Array as="points" />
          </mxGeometry>
        </mxCell>
        <mxCell id="Ovm6Z-cW9augZ0ihivDo-24" style="edgeStyle=orthogonalEdgeStyle;rounded=0;orthogonalLoop=1;jettySize=auto;html=1;entryX=1;entryY=0.5;entryDx=0;entryDy=0;" parent="1" source="eWz67TTPyYCK9VNah5Zr-55" target="Ovm6Z-cW9augZ0ihivDo-22" edge="1">
          <mxGeometry relative="1" as="geometry" />
        </mxCell>
        <mxCell id="eWz67TTPyYCK9VNah5Zr-55" value="Hash Password" style="html=1;overflow=block;blockSpacing=1;whiteSpace=wrap;fontSize=12;fontFamily=Helvetica;spacing=9;rounded=1;absoluteArcSize=1;arcSize=9;strokeWidth=NaN;lucidId=bWEUQv-7P4Rg;labelBackgroundColor=default;" parent="1" vertex="1">
          <mxGeometry x="1310" y="1044" width="120" height="39" as="geometry" />
        </mxCell>
        <mxCell id="eWz67TTPyYCK9VNah5Zr-68" value="Actor" style="shape=umlActor;verticalLabelPosition=bottom;verticalAlign=top;html=1;fontFamily=Helvetica;fontSize=12;" parent="1" vertex="1">
          <mxGeometry x="20" y="300" width="30" height="60" as="geometry" />
        </mxCell>
        <mxCell id="eWz67TTPyYCK9VNah5Zr-80" style="edgeStyle=orthogonalEdgeStyle;rounded=0;orthogonalLoop=1;jettySize=auto;html=1;exitX=0;exitY=0.5;exitDx=0;exitDy=0;fontFamily=Helvetica;fontSize=12;" parent="1" source="eWz67TTPyYCK9VNah5Zr-78" target="eWz67TTPyYCK9VNah5Zr-24" edge="1">
          <mxGeometry relative="1" as="geometry">
            <Array as="points">
              <mxPoint x="1425" y="622" />
              <mxPoint x="1425" y="570" />
            </Array>
          </mxGeometry>
        </mxCell>
        <mxCell id="eWz67TTPyYCK9VNah5Zr-81" style="edgeStyle=orthogonalEdgeStyle;rounded=0;orthogonalLoop=1;jettySize=auto;html=1;exitX=0;exitY=0.5;exitDx=0;exitDy=0;entryX=1;entryY=0.5;entryDx=0;entryDy=0;fontFamily=Helvetica;fontSize=12;" parent="1" source="eWz67TTPyYCK9VNah5Zr-78" target="eWz67TTPyYCK9VNah5Zr-31" edge="1">
          <mxGeometry relative="1" as="geometry">
            <Array as="points">
              <mxPoint x="1425" y="622" />
              <mxPoint x="1425" y="665" />
            </Array>
          </mxGeometry>
        </mxCell>
        <mxCell id="eWz67TTPyYCK9VNah5Zr-78" value="UserAccount" style="shape=datastore;whiteSpace=wrap;html=1;fontFamily=Helvetica;fontSize=12;" parent="1" vertex="1">
          <mxGeometry x="1445" y="580" width="80" height="85" as="geometry" />
        </mxCell>
        <mxCell id="eWz67TTPyYCK9VNah5Zr-83" value="License" style="shape=datastore;whiteSpace=wrap;html=1;fontFamily=Helvetica;fontSize=12;" parent="1" vertex="1">
          <mxGeometry x="1305" y="345" width="80" height="85" as="geometry" />
        </mxCell>
        <mxCell id="eWz67TTPyYCK9VNah5Zr-92" style="edgeStyle=orthogonalEdgeStyle;rounded=0;orthogonalLoop=1;jettySize=auto;html=1;exitX=0.5;exitY=0.5;exitDx=0;exitDy=0;exitPerimeter=0;entryX=0.002;entryY=0.42;entryDx=0;entryDy=0;entryPerimeter=0;" parent="1" source="eWz67TTPyYCK9VNah5Zr-68" target="eWz67TTPyYCK9VNah5Zr-76" edge="1">
          <mxGeometry relative="1" as="geometry" />
        </mxCell>
        <mxCell id="eWz67TTPyYCK9VNah5Zr-97" style="edgeStyle=orthogonalEdgeStyle;rounded=0;orthogonalLoop=1;jettySize=auto;html=1;exitX=0.5;exitY=1;exitDx=0;exitDy=0;entryX=0.5;entryY=0;entryDx=0;entryDy=0;" parent="1" source="eWz67TTPyYCK9VNah5Zr-93" target="eWz67TTPyYCK9VNah5Zr-96" edge="1">
          <mxGeometry relative="1" as="geometry" />
        </mxCell>
        <mxCell id="eWz67TTPyYCK9VNah5Zr-93" value="API POST :&amp;nbsp;&lt;div&gt;login&lt;/div&gt;" style="html=1;overflow=block;blockSpacing=1;whiteSpace=wrap;shape=process;fontSize=12;fontFamily=Helvetica;spacing=3.8;strokeColor=#3a414a;strokeOpacity=100;fillOpacity=100;rounded=1;absoluteArcSize=1;arcSize=9;fillColor=#ffffff;strokeWidth=0.8;lucidId=fZEU0QEMOlCc;" parent="1" vertex="1">
          <mxGeometry x="267.5" y="590" width="180" height="40" as="geometry" />
        </mxCell>
        <mxCell id="eWz67TTPyYCK9VNah5Zr-95" value="&lt;div style=&quot;display: flex; justify-content: center; text-align: center; align-items: baseline; line-height: 1.25; margin-top: -2px;&quot;&gt;&lt;span&gt;&lt;span style=&quot;color: rgb(0, 0, 0);&quot;&gt;Is account&amp;nbsp;&lt;/span&gt;active&lt;span style=&quot;color: rgb(0, 0, 0);&quot;&gt;?&lt;/span&gt;&lt;/span&gt;&lt;/div&gt;" style="html=1;overflow=block;blockSpacing=1;whiteSpace=wrap;rhombus;fontSize=12;fontFamily=Helvetica;spacing=3.8;strokeColor=#3a414a;strokeOpacity=100;fillOpacity=100;rounded=1;absoluteArcSize=1;arcSize=9;fillColor=#ffffff;strokeWidth=0.8;lucidId=90EUq45sE9-c;" parent="1" vertex="1">
          <mxGeometry x="283" y="734" width="150" height="90" as="geometry" />
        </mxCell>
        <mxCell id="eWz67TTPyYCK9VNah5Zr-98" style="edgeStyle=orthogonalEdgeStyle;rounded=0;orthogonalLoop=1;jettySize=auto;html=1;entryX=0.5;entryY=0;entryDx=0;entryDy=0;" parent="1" source="eWz67TTPyYCK9VNah5Zr-96" target="eWz67TTPyYCK9VNah5Zr-95" edge="1">
          <mxGeometry relative="1" as="geometry" />
        </mxCell>
        <mxCell id="eWz67TTPyYCK9VNah5Zr-96" value="Hash Password" style="html=1;overflow=block;blockSpacing=1;whiteSpace=wrap;fontSize=12;fontFamily=Helvetica;spacing=9;rounded=1;absoluteArcSize=1;arcSize=9;strokeWidth=NaN;lucidId=bWEUQv-7P4Rg;labelBackgroundColor=default;" parent="1" vertex="1">
          <mxGeometry x="297.5" y="670" width="120" height="39" as="geometry" />
        </mxCell>
        <mxCell id="eWz67TTPyYCK9VNah5Zr-99" value="No" style="edgeStyle=orthogonalEdgeStyle;rounded=0;orthogonalLoop=1;jettySize=auto;html=1;exitX=0;exitY=0.5;exitDx=0;exitDy=0;entryX=0.079;entryY=0.993;entryDx=0;entryDy=0;entryPerimeter=0;fillColor=#f8cecc;strokeColor=#b85450;fontColor=light-dark(#ff4013, #ededed);fontSize=12;fontStyle=1" parent="1" source="eWz67TTPyYCK9VNah5Zr-95" target="eWz67TTPyYCK9VNah5Zr-76" edge="1">
          <mxGeometry x="-0.9221" y="-14" relative="1" as="geometry">
            <mxPoint as="offset" />
          </mxGeometry>
        </mxCell>
        <mxCell id="eWz67TTPyYCK9VNah5Zr-101" style="edgeStyle=orthogonalEdgeStyle;rounded=0;orthogonalLoop=1;jettySize=auto;html=1;exitX=0;exitY=0.5;exitDx=0;exitDy=0;entryX=1;entryY=0.5;entryDx=0;entryDy=0;" parent="1" source="eWz67TTPyYCK9VNah5Zr-100" target="eWz67TTPyYCK9VNah5Zr-95" edge="1">
          <mxGeometry relative="1" as="geometry" />
        </mxCell>
        <mxCell id="eWz67TTPyYCK9VNah5Zr-100" value="UserAccount" style="shape=datastore;whiteSpace=wrap;html=1;fontFamily=Helvetica;fontSize=12;" parent="1" vertex="1">
          <mxGeometry x="480" y="736.5" width="80" height="85" as="geometry" />
        </mxCell>
        <mxCell id="eWz67TTPyYCK9VNah5Zr-115" value="&lt;span style=&quot;color: light-dark(rgb(102, 156, 53), rgb(237, 237, 237));&quot;&gt;&lt;font style=&quot;font-size: 12px;&quot;&gt;&lt;b&gt;Yes&lt;/b&gt;&lt;/font&gt;&lt;/span&gt;" style="edgeStyle=orthogonalEdgeStyle;rounded=0;orthogonalLoop=1;jettySize=auto;html=1;entryX=0.5;entryY=0;entryDx=0;entryDy=0;fillColor=#d5e8d4;strokeColor=#82b366;exitX=0.5;exitY=1;exitDx=0;exitDy=0;" parent="1" source="eWz67TTPyYCK9VNah5Zr-95" target="3OnZkj5bL1XuIFAc75Mr-1" edge="1">
          <mxGeometry x="-0.697" y="-15" relative="1" as="geometry">
            <mxPoint as="offset" />
            <mxPoint x="350" y="980" as="sourcePoint" />
          </mxGeometry>
        </mxCell>
        <mxCell id="eWz67TTPyYCK9VNah5Zr-109" value="" style="html=1;overflow=block;blockSpacing=1;whiteSpace=wrap;container=1;pointerEvents=0;collapsible=0;recursiveResize=0;fontSize=12;fontFamily=Helvetica;spacing=0;strokeColor=#3a414a;strokeOpacity=100;fillOpacity=0;rounded=1;absoluteArcSize=1;arcSize=9;fillColor=#000000;strokeWidth=1.5;lucidId=jgEULdvxt6wD;" parent="1" vertex="1">
          <mxGeometry x="268" y="945" width="180" height="110" as="geometry" />
        </mxCell>
        <mxCell id="eWz67TTPyYCK9VNah5Zr-110" value="&lt;font style=&quot;font-size: 16px;&quot;&gt;Home&lt;/font&gt;&lt;span style=&quot;font-size: 16px;&quot;&gt;&amp;nbsp;Page&lt;/span&gt;" style="text;html=1;align=center;verticalAlign=middle;resizable=0;points=[];autosize=1;strokeColor=none;fillColor=none;fontFamily=Helvetica;fontSize=12;" parent="eWz67TTPyYCK9VNah5Zr-109" vertex="1">
          <mxGeometry x="35" width="110" height="30" as="geometry" />
        </mxCell>
        <mxCell id="3OnZkj5bL1XuIFAc75Mr-2" style="edgeStyle=orthogonalEdgeStyle;rounded=0;orthogonalLoop=1;jettySize=auto;html=1;" parent="1" source="3OnZkj5bL1XuIFAc75Mr-1" target="eWz67TTPyYCK9VNah5Zr-109" edge="1">
          <mxGeometry relative="1" as="geometry" />
        </mxCell>
        <mxCell id="3OnZkj5bL1XuIFAc75Mr-1" value="Generate Token" style="html=1;overflow=block;blockSpacing=1;whiteSpace=wrap;fontSize=12;fontFamily=Helvetica;spacing=9;rounded=1;absoluteArcSize=1;arcSize=9;strokeWidth=NaN;lucidId=bWEUQv-7P4Rg;labelBackgroundColor=default;" parent="1" vertex="1">
          <mxGeometry x="302.5" y="865" width="110" height="39" as="geometry" />
        </mxCell>
        <mxCell id="Ovm6Z-cW9augZ0ihivDo-6" value="&lt;b style=&quot;color: light-dark(rgb(119, 187, 65), rgb(237, 237, 237));&quot;&gt;Yes&lt;/b&gt;" style="edgeStyle=orthogonalEdgeStyle;rounded=0;orthogonalLoop=1;jettySize=auto;html=1;entryX=0;entryY=0.5;entryDx=0;entryDy=0;fillColor=#d5e8d4;strokeColor=#82b366;" parent="1" source="Ovm6Z-cW9augZ0ihivDo-3" target="Ovm6Z-cW9augZ0ihivDo-4" edge="1">
          <mxGeometry relative="1" as="geometry" />
        </mxCell>
        <mxCell id="Ovm6Z-cW9augZ0ihivDo-35" value="&lt;span style=&quot;color: light-dark(rgb(255, 64, 19), rgb(237, 237, 237));&quot;&gt;&lt;b&gt;No&lt;/b&gt;&lt;/span&gt;" style="edgeStyle=orthogonalEdgeStyle;rounded=0;orthogonalLoop=1;jettySize=auto;html=1;endArrow=none;startFill=0;fillColor=#f8cecc;strokeColor=#b85450;" parent="1" source="Ovm6Z-cW9augZ0ihivDo-3" edge="1">
          <mxGeometry x="0.0084" relative="1" as="geometry">
            <mxPoint x="955" y="850" as="targetPoint" />
            <Array as="points">
              <mxPoint x="955" y="860" />
            </Array>
            <mxPoint as="offset" />
          </mxGeometry>
        </mxCell>
        <mxCell id="Ovm6Z-cW9augZ0ihivDo-3" value="&lt;font&gt;Is input username&amp;nbsp;&lt;/font&gt;&lt;div&gt;&lt;font&gt;unique?&lt;/font&gt;&lt;/div&gt;" style="html=1;overflow=block;blockSpacing=1;whiteSpace=wrap;rhombus;fontSize=12;fontFamily=Helvetica;fontColor=default;spacing=3.8;strokeColor=#3a414a;strokeOpacity=100;fillOpacity=100;rounded=1;absoluteArcSize=1;arcSize=9;fillColor=#ffffff;strokeWidth=0.8;lucidId=H.DUoWM3rg2R;" parent="1" vertex="1">
          <mxGeometry x="880" y="867" width="150" height="90" as="geometry" />
        </mxCell>
        <mxCell id="Ovm6Z-cW9augZ0ihivDo-7" value="&lt;b style=&quot;color: light-dark(rgb(119, 187, 65), rgb(237, 237, 237));&quot;&gt;Yes&lt;/b&gt;" style="edgeStyle=orthogonalEdgeStyle;rounded=0;orthogonalLoop=1;jettySize=auto;html=1;entryX=0;entryY=0.5;entryDx=0;entryDy=0;fillColor=#d5e8d4;strokeColor=#82b366;" parent="1" source="Ovm6Z-cW9augZ0ihivDo-4" target="Ovm6Z-cW9augZ0ihivDo-5" edge="1">
          <mxGeometry x="0.0119" relative="1" as="geometry">
            <mxPoint as="offset" />
          </mxGeometry>
        </mxCell>
        <mxCell id="Ovm6Z-cW9augZ0ihivDo-30" value="&lt;b style=&quot;color: light-dark(rgb(255, 64, 19), rgb(237, 237, 237));&quot;&gt;No&lt;/b&gt;" style="edgeStyle=orthogonalEdgeStyle;rounded=0;orthogonalLoop=1;jettySize=auto;html=1;endArrow=classic;startFill=0;endFill=1;fillColor=#f8cecc;strokeColor=#b85450;" parent="1" source="Ovm6Z-cW9augZ0ihivDo-4" target="eWz67TTPyYCK9VNah5Zr-3" edge="1">
          <mxGeometry x="-0.9608" relative="1" as="geometry">
            <mxPoint x="890" y="830" as="targetPoint" />
            <Array as="points">
              <mxPoint x="1165" y="850" />
              <mxPoint x="840" y="850" />
            </Array>
            <mxPoint as="offset" />
          </mxGeometry>
        </mxCell>
        <mxCell id="Ovm6Z-cW9augZ0ihivDo-4" value="&lt;div style=&quot;display: flex; justify-content: center; text-align: center; align-items: baseline; line-height: 1.25; margin-top: -2px;&quot;&gt;&lt;span style=&quot;color: rgb(0, 0, 0);&quot;&gt;&lt;font&gt;Is input&amp;nbsp;&lt;/font&gt;&lt;span&gt;email u&lt;/span&gt;&lt;/span&gt;&lt;span&gt;&lt;span&gt;nique?&lt;/span&gt;&lt;/span&gt;&lt;/div&gt;" style="html=1;overflow=block;blockSpacing=1;whiteSpace=wrap;rhombus;fontSize=12;fontFamily=Helvetica;spacing=3.8;strokeColor=#3a414a;strokeOpacity=100;fillOpacity=100;rounded=1;absoluteArcSize=1;arcSize=9;fillColor=#ffffff;strokeWidth=0.8;lucidId=fcEUWMaaT8yM;" parent="1" vertex="1">
          <mxGeometry x="1090" y="867" width="150" height="90" as="geometry" />
        </mxCell>
        <mxCell id="Ovm6Z-cW9augZ0ihivDo-28" value="&lt;b style=&quot;color: light-dark(rgb(119, 187, 65), rgb(237, 237, 237));&quot;&gt;Yes&lt;/b&gt;" style="edgeStyle=orthogonalEdgeStyle;rounded=0;orthogonalLoop=1;jettySize=auto;html=1;entryX=0.5;entryY=0;entryDx=0;entryDy=0;fillColor=#d5e8d4;strokeColor=#82b366;" parent="1" source="Ovm6Z-cW9augZ0ihivDo-5" target="eWz67TTPyYCK9VNah5Zr-55" edge="1">
          <mxGeometry x="-0.0005" relative="1" as="geometry">
            <mxPoint as="offset" />
          </mxGeometry>
        </mxCell>
        <mxCell id="Ovm6Z-cW9augZ0ihivDo-31" value="&lt;span style=&quot;color: light-dark(rgb(255, 64, 19), rgb(237, 237, 237));&quot;&gt;&lt;b&gt;No&lt;/b&gt;&lt;/span&gt;" style="edgeStyle=orthogonalEdgeStyle;rounded=0;orthogonalLoop=1;jettySize=auto;html=1;exitX=0;exitY=0;exitDx=0;exitDy=0;endArrow=none;startFill=0;fillColor=#f8cecc;strokeColor=#b85450;" parent="1" source="Ovm6Z-cW9augZ0ihivDo-5" edge="1">
          <mxGeometry x="-0.9764" y="-9" relative="1" as="geometry">
            <mxPoint x="1160" y="850" as="targetPoint" />
            <mxPoint x="1320" y="892" as="sourcePoint" />
            <Array as="points">
              <mxPoint x="1320" y="890" />
              <mxPoint x="1320" y="850" />
            </Array>
            <mxPoint y="-1" as="offset" />
          </mxGeometry>
        </mxCell>
        <mxCell id="Ovm6Z-cW9augZ0ihivDo-5" value="&lt;div style=&quot;display: flex; justify-content: center; text-align: center; align-items: baseline; line-height: 1.25; margin-top: -2px;&quot;&gt;&lt;span style=&quot;color: rgb(0, 0, 0);&quot;&gt;&lt;font&gt;Is license key valid&lt;/font&gt;?&lt;/span&gt;&lt;/div&gt;" style="html=1;overflow=block;blockSpacing=1;whiteSpace=wrap;rhombus;fontSize=12;fontFamily=Helvetica;spacing=3.8;strokeColor=#3a414a;strokeOpacity=100;fillOpacity=100;rounded=1;absoluteArcSize=1;arcSize=9;fillColor=#ffffff;strokeWidth=0.8;lucidId=fcEUWMaaT8yM;" parent="1" vertex="1">
          <mxGeometry x="1295" y="867" width="150" height="90" as="geometry" />
        </mxCell>
        <mxCell id="Ovm6Z-cW9augZ0ihivDo-8" style="edgeStyle=orthogonalEdgeStyle;rounded=0;orthogonalLoop=1;jettySize=auto;html=1;entryX=0;entryY=0.5;entryDx=0;entryDy=0;" parent="1" source="eWz67TTPyYCK9VNah5Zr-17" target="eWz67TTPyYCK9VNah5Zr-30" edge="1">
          <mxGeometry relative="1" as="geometry" />
        </mxCell>
        <mxCell id="Ovm6Z-cW9augZ0ihivDo-17" style="edgeStyle=orthogonalEdgeStyle;rounded=0;orthogonalLoop=1;jettySize=auto;html=1;" parent="1" source="Ovm6Z-cW9augZ0ihivDo-13" target="eWz67TTPyYCK9VNah5Zr-48" edge="1">
          <mxGeometry relative="1" as="geometry" />
        </mxCell>
        <mxCell id="Ovm6Z-cW9augZ0ihivDo-13" value="API POST : getLicenseKey" style="html=1;overflow=block;blockSpacing=1;whiteSpace=wrap;shape=process;fontSize=12;fontFamily=Helvetica;spacing=3.8;strokeColor=#3a414a;strokeOpacity=100;fillOpacity=100;rounded=1;absoluteArcSize=1;arcSize=9;fillColor=#ffffff;strokeWidth=0.8;lucidId=d-DUjQnT9r4C;" parent="1" vertex="1">
          <mxGeometry x="1051" y="455" width="180" height="40" as="geometry" />
        </mxCell>
        <mxCell id="Ovm6Z-cW9augZ0ihivDo-12" style="edgeStyle=orthogonalEdgeStyle;rounded=0;orthogonalLoop=1;jettySize=auto;html=1;entryX=0;entryY=0.5;entryDx=0;entryDy=0;" parent="1" source="eWz67TTPyYCK9VNah5Zr-39" target="Ovm6Z-cW9augZ0ihivDo-13" edge="1">
          <mxGeometry relative="1" as="geometry">
            <mxPoint x="1040" y="475" as="targetPoint" />
          </mxGeometry>
        </mxCell>
        <mxCell id="Ovm6Z-cW9augZ0ihivDo-21" style="edgeStyle=orthogonalEdgeStyle;rounded=0;orthogonalLoop=1;jettySize=auto;html=1;entryX=0.5;entryY=0;entryDx=0;entryDy=0;" parent="1" source="Ovm6Z-cW9augZ0ihivDo-20" target="Ovm6Z-cW9augZ0ihivDo-5" edge="1">
          <mxGeometry relative="1" as="geometry" />
        </mxCell>
        <mxCell id="Ovm6Z-cW9augZ0ihivDo-20" value="License" style="shape=datastore;whiteSpace=wrap;html=1;fontFamily=Helvetica;fontSize=12;" parent="1" vertex="1">
          <mxGeometry x="1330" y="760" width="80" height="85" as="geometry" />
        </mxCell>
        <mxCell id="Ovm6Z-cW9augZ0ihivDo-25" style="edgeStyle=orthogonalEdgeStyle;rounded=0;orthogonalLoop=1;jettySize=auto;html=1;" parent="1" source="Ovm6Z-cW9augZ0ihivDo-22" target="Ovm6Z-cW9augZ0ihivDo-3" edge="1">
          <mxGeometry relative="1" as="geometry" />
        </mxCell>
        <mxCell id="Ovm6Z-cW9augZ0ihivDo-26" style="edgeStyle=orthogonalEdgeStyle;rounded=0;orthogonalLoop=1;jettySize=auto;html=1;entryX=0.5;entryY=1;entryDx=0;entryDy=0;" parent="1" source="Ovm6Z-cW9augZ0ihivDo-22" target="Ovm6Z-cW9augZ0ihivDo-4" edge="1">
          <mxGeometry relative="1" as="geometry" />
        </mxCell>
        <mxCell id="Ovm6Z-cW9augZ0ihivDo-22" value="UserAccount" style="shape=datastore;whiteSpace=wrap;html=1;fontFamily=Helvetica;fontSize=12;" parent="1" vertex="1">
          <mxGeometry x="1020" y="1021" width="80" height="85" as="geometry" />
        </mxCell>
        <mxCell id="Ovm6Z-cW9augZ0ihivDo-36" value="" style="html=1;overflow=block;blockSpacing=1;whiteSpace=wrap;container=1;pointerEvents=0;collapsible=0;recursiveResize=0;fontSize=12;fontFamily=Helvetica;spacing=0;strokeColor=#unset;fillOpacity=0;rounded=1;absoluteArcSize=1;arcSize=9;fillColor=#000000;strokeWidth=NaN;lucidId=kTDUX1_EgLmr;" parent="1" vertex="1">
          <mxGeometry x="650" y="-162" width="430" height="472" as="geometry" />
        </mxCell>
        <mxCell id="Ovm6Z-cW9augZ0ihivDo-37" value="" style="html=1;overflow=block;blockSpacing=1;whiteSpace=wrap;container=1;pointerEvents=0;collapsible=0;recursiveResize=0;fontSize=12;fontFamily=Helvetica;spacing=0;strokeColor=#3a414a;strokeOpacity=100;fillOpacity=0;rounded=1;absoluteArcSize=1;arcSize=9;fillColor=#000000;strokeWidth=1.5;lucidId=R5DUT0HCY4g-;" parent="Ovm6Z-cW9augZ0ihivDo-36" vertex="1">
          <mxGeometry x="10" y="162" width="360" height="310" as="geometry" />
        </mxCell>
        <mxCell id="Ovm6Z-cW9augZ0ihivDo-38" value="&lt;font&gt;Forgot Password Page&lt;/font&gt;" style="text;html=1;align=center;verticalAlign=middle;resizable=0;points=[];autosize=1;strokeColor=none;fillColor=none;fontFamily=Helvetica;fontSize=16;" parent="Ovm6Z-cW9augZ0ihivDo-37" vertex="1">
          <mxGeometry x="85" width="190" height="30" as="geometry" />
        </mxCell>
        <mxCell id="Ovm6Z-cW9augZ0ihivDo-50" style="edgeStyle=orthogonalEdgeStyle;rounded=0;orthogonalLoop=1;jettySize=auto;html=1;dashed=1;exitX=1;exitY=0;exitDx=0;exitDy=0;" parent="Ovm6Z-cW9augZ0ihivDo-37" source="Ovm6Z-cW9augZ0ihivDo-39" target="Ovm6Z-cW9augZ0ihivDo-40" edge="1">
          <mxGeometry relative="1" as="geometry">
            <Array as="points">
              <mxPoint x="200" y="210" />
              <mxPoint x="200" y="170" />
              <mxPoint x="257" y="170" />
            </Array>
          </mxGeometry>
        </mxCell>
        <mxCell id="Ovm6Z-cW9augZ0ihivDo-52" style="edgeStyle=orthogonalEdgeStyle;rounded=0;orthogonalLoop=1;jettySize=auto;html=1;dashed=1;" parent="Ovm6Z-cW9augZ0ihivDo-37" source="Ovm6Z-cW9augZ0ihivDo-39" target="Ovm6Z-cW9augZ0ihivDo-51" edge="1">
          <mxGeometry relative="1" as="geometry">
            <Array as="points">
              <mxPoint x="150" y="180" />
              <mxPoint x="95" y="180" />
            </Array>
          </mxGeometry>
        </mxCell>
        <mxCell id="Ovm6Z-cW9augZ0ihivDo-39" value="Reset Password" style="html=1;overflow=block;blockSpacing=1;whiteSpace=wrap;ellipse;fontSize=12;spacing=3.8;strokeColor=#3a414a;strokeOpacity=100;fillOpacity=100;rounded=1;absoluteArcSize=1;arcSize=9;fillColor=#ffffff;strokeWidth=1.5;lucidId=sUDUintjghet;fontFamily=Helvetica;" parent="Ovm6Z-cW9augZ0ihivDo-37" vertex="1">
          <mxGeometry x="114.5" y="200" width="135" height="68" as="geometry" />
        </mxCell>
        <mxCell id="Ovm6Z-cW9augZ0ihivDo-40" value="Get Authentication Code" style="html=1;overflow=block;blockSpacing=1;whiteSpace=wrap;ellipse;fontSize=12;spacing=3.8;strokeColor=#3a414a;strokeOpacity=100;fillOpacity=100;rounded=1;absoluteArcSize=1;arcSize=9;fillColor=#ffffff;strokeWidth=1.5;lucidId=6VDUhwTjax~7;fontFamily=Helvetica;" parent="Ovm6Z-cW9augZ0ihivDo-37" vertex="1">
          <mxGeometry x="190" y="72" width="135" height="68" as="geometry" />
        </mxCell>
        <mxCell id="Ovm6Z-cW9augZ0ihivDo-51" value="Password Check" style="html=1;overflow=block;blockSpacing=1;whiteSpace=wrap;ellipse;fontSize=12;spacing=3.8;strokeColor=#3a414a;strokeOpacity=100;fillOpacity=100;rounded=1;absoluteArcSize=1;arcSize=9;fillColor=#ffffff;strokeWidth=1.5;lucidId=W7DUtTJI5MFG;fontFamily=Helvetica;" parent="Ovm6Z-cW9augZ0ihivDo-37" vertex="1">
          <mxGeometry x="50" y="100" width="90" height="60" as="geometry" />
        </mxCell>
        <mxCell id="Ovm6Z-cW9augZ0ihivDo-47" style="edgeStyle=orthogonalEdgeStyle;rounded=0;orthogonalLoop=1;jettySize=auto;html=1;entryX=0.493;entryY=-0.054;entryDx=0;entryDy=0;entryPerimeter=0;" parent="1" source="eWz67TTPyYCK9VNah5Zr-6" target="eWz67TTPyYCK9VNah5Zr-73" edge="1">
          <mxGeometry relative="1" as="geometry">
            <mxPoint x="830" y="400" as="targetPoint" />
          </mxGeometry>
        </mxCell>
        <mxCell id="Ovm6Z-cW9augZ0ihivDo-48" style="edgeStyle=orthogonalEdgeStyle;rounded=0;orthogonalLoop=1;jettySize=auto;html=1;entryX=0;entryY=0.852;entryDx=0;entryDy=0;entryPerimeter=0;" parent="1" source="eWz67TTPyYCK9VNah5Zr-7" target="Ovm6Z-cW9augZ0ihivDo-37" edge="1">
          <mxGeometry relative="1" as="geometry" />
        </mxCell>
        <mxCell id="Ovm6Z-cW9augZ0ihivDo-57" style="edgeStyle=orthogonalEdgeStyle;rounded=0;orthogonalLoop=1;jettySize=auto;html=1;exitX=1;exitY=0.5;exitDx=0;exitDy=0;entryX=0;entryY=0.5;entryDx=0;entryDy=0;" parent="1" source="Ovm6Z-cW9augZ0ihivDo-58" target="Ovm6Z-cW9augZ0ihivDo-59" edge="1">
          <mxGeometry relative="1" as="geometry" />
        </mxCell>
        <mxCell id="Ovm6Z-cW9augZ0ihivDo-58" value="Generate one-time code" style="html=1;overflow=block;blockSpacing=1;whiteSpace=wrap;fontSize=12;fontFamily=Helvetica;spacing=9;rounded=1;absoluteArcSize=1;arcSize=9;strokeWidth=NaN;lucidId=pTEUjj1fshSb;" parent="1" vertex="1">
          <mxGeometry x="1284.5" y="91" width="150" height="30" as="geometry" />
        </mxCell>
        <mxCell id="Ovm6Z-cW9augZ0ihivDo-59" value="Send code email" style="html=1;overflow=block;blockSpacing=1;whiteSpace=wrap;fontSize=12;fontFamily=Helvetica;spacing=9;rounded=1;absoluteArcSize=1;arcSize=9;strokeWidth=NaN;lucidId=jUEUQ4qV01XV;" parent="1" vertex="1">
          <mxGeometry x="1474.5" y="91" width="150" height="30" as="geometry" />
        </mxCell>
        <mxCell id="Ovm6Z-cW9augZ0ihivDo-60" style="edgeStyle=orthogonalEdgeStyle;rounded=0;orthogonalLoop=1;jettySize=auto;html=1;" parent="1" source="Ovm6Z-cW9augZ0ihivDo-61" target="Ovm6Z-cW9augZ0ihivDo-58" edge="1">
          <mxGeometry relative="1" as="geometry" />
        </mxCell>
        <mxCell id="Ovm6Z-cW9augZ0ihivDo-61" value="API POST : getAuthenticationCode" style="html=1;overflow=block;blockSpacing=1;whiteSpace=wrap;shape=process;fontSize=12;fontFamily=Helvetica;spacing=3.8;strokeColor=#3a414a;strokeOpacity=100;fillOpacity=100;rounded=1;absoluteArcSize=1;arcSize=9;fillColor=#ffffff;strokeWidth=0.8;lucidId=d-DUjQnT9r4C;" parent="1" vertex="1">
          <mxGeometry x="1065.5" y="86" width="180" height="40" as="geometry" />
        </mxCell>
        <mxCell id="Ovm6Z-cW9augZ0ihivDo-62" style="edgeStyle=orthogonalEdgeStyle;rounded=0;orthogonalLoop=1;jettySize=auto;html=1;entryX=0;entryY=0.5;entryDx=0;entryDy=0;" parent="1" source="Ovm6Z-cW9augZ0ihivDo-40" target="Ovm6Z-cW9augZ0ihivDo-61" edge="1">
          <mxGeometry relative="1" as="geometry" />
        </mxCell>
        <mxCell id="Ovm6Z-cW9augZ0ihivDo-68" style="edgeStyle=orthogonalEdgeStyle;rounded=0;orthogonalLoop=1;jettySize=auto;html=1;entryX=0;entryY=0.5;entryDx=0;entryDy=0;" parent="1" source="Ovm6Z-cW9augZ0ihivDo-64" target="Ovm6Z-cW9augZ0ihivDo-66" edge="1">
          <mxGeometry relative="1" as="geometry" />
        </mxCell>
        <mxCell id="Ovm6Z-cW9augZ0ihivDo-64" value="API PUT : resetPasswordByEmail" style="html=1;overflow=block;blockSpacing=1;whiteSpace=wrap;shape=process;fontSize=12;fontFamily=Helvetica;spacing=3.8;strokeColor=#3a414a;strokeOpacity=100;fillOpacity=100;rounded=1;absoluteArcSize=1;arcSize=9;fillColor=#ffffff;strokeWidth=0.8;lucidId=d-DUjQnT9r4C;" parent="1" vertex="1">
          <mxGeometry x="1060" y="214" width="180" height="40" as="geometry" />
        </mxCell>
        <mxCell id="Ovm6Z-cW9augZ0ihivDo-63" style="edgeStyle=orthogonalEdgeStyle;rounded=0;orthogonalLoop=1;jettySize=auto;html=1;entryX=0;entryY=0.5;entryDx=0;entryDy=0;" parent="1" source="Ovm6Z-cW9augZ0ihivDo-39" target="Ovm6Z-cW9augZ0ihivDo-64" edge="1">
          <mxGeometry relative="1" as="geometry">
            <mxPoint x="1130" y="234" as="targetPoint" />
          </mxGeometry>
        </mxCell>
        <mxCell id="Ovm6Z-cW9augZ0ihivDo-65" style="edgeStyle=orthogonalEdgeStyle;rounded=0;orthogonalLoop=1;jettySize=auto;html=1;entryX=0;entryY=0.5;entryDx=0;entryDy=0;" parent="1" source="Ovm6Z-cW9augZ0ihivDo-66" target="Ovm6Z-cW9augZ0ihivDo-67" edge="1">
          <mxGeometry relative="1" as="geometry" />
        </mxCell>
        <mxCell id="Ovm6Z-cW9augZ0ihivDo-66" value="Hash Password" style="html=1;overflow=block;blockSpacing=1;whiteSpace=wrap;fontSize=12;fontFamily=Helvetica;spacing=9;rounded=1;absoluteArcSize=1;arcSize=9;strokeWidth=NaN;lucidId=bWEUQv-7P4Rg;labelBackgroundColor=default;" parent="1" vertex="1">
          <mxGeometry x="1295" y="214" width="120" height="39" as="geometry" />
        </mxCell>
        <mxCell id="Ovm6Z-cW9augZ0ihivDo-67" value="UserAccount" style="shape=datastore;whiteSpace=wrap;html=1;fontFamily=Helvetica;fontSize=12;" parent="1" vertex="1">
          <mxGeometry x="1509.5" y="191.5" width="80" height="85" as="geometry" />
        </mxCell>
      </root>
    </mxGraphModel>
  </diagram>
</mxfile>
